<?xml version="1.0" standalone="no"?><!DOCTYPE svg PUBLIC "-//W3C//DTD SVG 1.1//EN" "http://www.w3.org/Graphics/SVG/1.1/DTD/svg11.dtd"><svg height="800" node-id="1" sillyvg="true" template-height="800" template-width="800" version="1.1" viewBox="0 0 800 800" width="800" xmlns="http://www.w3.org/2000/svg" xmlns:xlink="http://www.w3.org/1999/xlink"><defs node-id="29"></defs><g node-id="54"><path d="M 257.70 424.50 C 251.60 402.20 234.40 385.00 218.00 368.80 C 213.10 363.90 207.90 359.00 201.50 356.40 C 195.10 353.80 186.90 354.30 182.20 359.40 C 195.70 350.10 202.00 333.30 204.90 317.10 C 207.80 300.90 208.40 284.20 214.00 268.80 C 220.30 251.50 232.60 237.30 244.70 223.40 C 254.00 212.70 267.40 200.80 280.60 206.20 C 301.30 185.80 337.80 181.70 366.10 187.90 C 393.70 194.00 421.80 213.40 447.70 202.20 C 444.40 206.00 441.10 209.80 437.80 213.60 C 454.70 218.30 460.80 238.60 464.10 255.80 C 472.30 297.80 479.00 345.30 453.60 379.70 C 432.90 407.70 392.10 418.80 360.10 405.00 C 353.90 402.30 345.90 399.20 341.30 404.10 C 339.30 406.20 338.60 409.40 336.20 411.00 C 331.10 414.30 325.60 407.70 320.00 405.30 C 314.10 402.70 307.40 405.00 301.40 407.30 C 286.60 413.10 272.50 418.70 257.70 424.50 Z" fill="#040000" fill-rule="nonzero" group-id="1" node-id="36" stroke="none" target-height="242.8" target-width="296.8" target-x="182.2" target-y="181.7"></path><path d="M 384.50 318.90 C 372.80 325.10 362.50 339.30 359.60 344.20 C 355.30 351.40 353.60 362.00 353.10 370.40 C 352.10 386.90 354.20 400.30 364.80 418.90 C 373.80 434.70 390.50 445.10 407.90 450.30 C 425.40 455.50 443.80 456.30 462.00 456.90 C 477.20 457.50 496.70 455.20 501.00 440.60 C 506.30 444.90 514.80 441.70 518.40 436.00 C 522.00 430.30 522.10 423.00 521.80 416.30 C 520.10 381.00 511.20 345.70 492.80 315.50 C 483.30 299.90 470.50 285.20 453.30 279.00 C 402.30 260.60 416.00 302.20 384.50 318.90 Z" fill="#ffd5cf" fill-rule="nonzero" group-id="1" node-id="38" stroke="none" target-height="196.9" target-width="169.99997" target-x="352.1" target-y="260.6"></path><path d="M 502.50 614.80 C 486.10 614.40 469.60 614.00 453.20 613.60 C 421.30 612.90 368.70 612.10 336.70 611.40 C 334.20 592.10 353.80 572.50 354.10 553.00 C 354.50 525.00 359.30 494.00 381.20 476.50 C 400.50 461.00 427.50 460.70 452.30 461.20 C 503.50 462.10 508.80 578.40 502.50 614.80 Z" fill="#30406e" fill-rule="nonzero" group-id="1" node-id="40" stroke="none" target-height="154.09998" target-width="174.59998" target-x="334.2" target-y="460.7"></path><path d="M 364.60 407.40 C 399.20 419.20 433.90 430.90 468.50 442.70 C 474.80 444.80 481.60 447.50 484.60 453.40 C 489.20 462.60 481.00 473.90 471.20 477.10 C 461.40 480.30 450.80 478.40 440.50 478.40 C 403.10 478.40 367.90 508.00 361.30 544.80 C 357.20 567.90 360.50 597.30 340.10 608.80 C 331.70 613.50 321.50 613.40 311.80 613.10 C 274.80 611.90 237.80 610.80 200.70 609.60 C 197.20 609.50 193.30 609.30 190.70 606.90 C 187.20 603.70 187.50 598.20 188.10 593.50 C 195.10 540.50 212.40 488.90 238.80 442.40 C 265.60 394.90 317.60 391.50 364.60 407.40 Z" fill="#3a8c6e" fill-rule="nonzero" group-id="1" node-id="42" stroke="none" target-height="222" target-width="302" target-x="187.2" target-y="391.5"></path><path d="M 494.40 222.30 C 522.60 224.60 551.90 231.80 572.60 251.10 C 591.70 269.00 601.20 288.90 609.70 313.60 C 612.60 322.00 615.40 336.30 616.60 345.20 C 618.40 358.80 618.30 377.30 615.90 390.80 C 612.50 410.00 606.90 424.30 603.60 443.50 C 601.60 455.00 598.80 467.70 589.10 474.10 C 577.50 481.90 560.00 477.60 550.00 487.40 C 545.50 491.80 543.50 498.20 539.10 502.60 C 532.40 509.30 521.40 509.90 512.60 506.60 C 503.70 503.30 496.50 496.80 489.50 490.50 C 483.40 485.00 476.80 477.90 478.50 469.90 C 479.40 465.70 482.50 462.20 483.40 458.00 C 484.40 453.40 482.80 448.70 481.20 444.30 C 471.10 416.60 515.00 418.80 508.30 373.70 C 501.30 326.80 457.90 321.50 441.50 311.60 C 417.60 297.30 375.80 291.50 393.70 256.50 C 409.70 225.60 465.00 219.90 494.40 222.30 Z" fill="#070102" fill-rule="nonzero" group-id="1" node-id="44" stroke="none" target-height="290" target-width="242.60004" target-x="375.8" target-y="219.9"></path><path d="M 416.30 320.70 C 413.70 317.70 408.90 317.20 405.40 319.00 C 401.90 320.80 399.50 324.40 398.40 328.20 C 397.80 330.30 397.50 332.70 398.50 334.60 C 400.50 338.50 406.50 338.60 409.90 335.90 C 413.30 333.20 414.80 328.70 416.20 324.60 C 416.70 322.90 417.10 320.60 415.50 319.80" fill="#080103" fill-rule="nonzero" group-id="1" node-id="46" stroke="none" target-height="21.399994" target-width="19.600006" target-x="397.5" target-y="317.2"></path><path d="M 469.60 348.30 C 467.30 345.60 463.00 345.20 459.80 346.80 C 456.60 348.40 454.50 351.60 453.60 355.10 C 453.10 357.00 452.80 359.10 453.70 360.90 C 455.50 364.40 460.90 364.50 463.90 362.10 C 467.00 359.70 468.30 355.70 469.50 351.90 C 470.00 350.40 470.30 348.40 468.90 347.60" fill="#080103" fill-rule="nonzero" group-id="1" node-id="48" stroke="none" target-height="19.299988" target-width="17.5" target-x="452.8" target-y="345.2"></path><path d="M 399.50 490.50 C 391.00 483.30 386.10 472.10 376.60 466.30 C 369.80 462.20 361.00 461.40 353.80 464.70 C 346.60 467.90 341.20 475.20 340.50 483.10 C 340.30 485.60 340.60 488.20 341.60 490.50 C 342.70 492.80 344.50 494.70 345.90 496.80 C 351.60 505.00 351.20 515.80 353.90 525.50 C 360.90 550.40 388.80 565.10 414.60 564.00 C 422.70 563.60 431.20 561.80 437.20 556.20 C 440.30 553.20 442.50 549.40 444.20 545.50 C 449.10 534.10 451.80 510.40 440.90 500.90 C 430.10 491.40 413.10 502.00 399.50 490.50 Z" fill="#30406e" fill-rule="nonzero" group-id="1" node-id="50" stroke="none" target-height="103.69998" target-width="111.5" target-x="340.3" target-y="461.4"></path><path d="M 389.20 371.10 C 389.30 374.20 387.70 372.50 388.40 375.50 C 390.40 384.10 394.00 393.60 402.70 395.60 C 411.30 397.60 427.80 394.20 433.40 387.40 C 431.60 382.70 425.00 381.80 420.00 382.70 C 405.80 385.30 397.50 378.60 389.20 371.10" fill="#070102" fill-rule="nonzero" group-id="1" node-id="52" stroke="none" target-height="26.5" target-width="45.69998" target-x="387.7" target-y="371.1"></path></g></svg>