<?xml version="1.0" standalone="no"?><!DOCTYPE svg PUBLIC "-//W3C//DTD SVG 1.1//EN" "http://www.w3.org/Graphics/SVG/1.1/DTD/svg11.dtd"><svg t="1690968542976" class="icon" viewBox="0 0 1024 1024" version="1.1" xmlns="http://www.w3.org/2000/svg" p-id="5566" xmlns:xlink="http://www.w3.org/1999/xlink" width="200" height="200"><path d="M453.5 606c-2.9 0-5.8-0.5-8.6-1.5-6.3-2.3-11.3-6.9-14.2-13-2.8-6.1-3.1-12.9-0.8-19.2L574.3 175.7c3.6-9.9 13.1-16.5 23.6-16.5 2.9 0 5.8 0.5 8.6 1.5 13 4.7 19.7 19.1 15 32.1L477.1 589.5c-3.6 9.8-13.1 16.5-23.6 16.5z m216.6-90.2c-6.6 0-13.1-2.7-17.8-7.4-4.7-4.7-7.3-11-7.3-17.7 0-6.6 2.7-13.1 7.4-17.7l90.5-90.4-90.6-90.5c-9.8-9.8-9.8-25.7 0-35.5 4.7-4.7 11-7.3 17.7-7.3 6.7 0 13 2.6 17.7 7.3l108.3 108.2c4.7 4.7 7.4 11 7.4 17.7 0 6.7-2.6 13-7.4 17.7L687.8 508.5c-4.7 4.7-11 7.3-17.7 7.3z m-288.8 0c-6.7 0-13-2.6-17.8-7.4L255.3 400.3c-4.7-4.7-7.4-11-7.4-17.7 0-6.7 2.6-13 7.4-17.7l108.3-108.2c4.7-4.7 11-7.3 17.7-7.3 6.7 0 13 2.6 17.7 7.3 9.8 9.8 9.8 25.7 0 35.5l-90.5 90.5 90.5 90.5c4.7 4.7 7.4 11 7.4 17.7 0 6.7-2.6 13-7.4 17.7-4.6 4.5-11.1 7.2-17.7 7.2z" fill="#212121" p-id="5567"></path><path d="M548.4 736.6h475.6V310.3c0-13.9-11.3-25.2-25.3-25.2-13.9 0-25.3 11.3-25.3 25.2v365.8c0 5.6-4.5 10.1-10.1 10.1H60.6c-5.6 0-10.1-4.5-10.1-10.1V60.5c0-5.6 4.5-10.1 10.1-10.1h717.6c13.9 0 25.3-11.3 25.3-25.2 0-13.9-11.3-25.2-25.3-25.2H0v736.6h475.6c5.6 0 10.1 4.5 10.1 10.1v215.7c0 5.6-4.5 10.1-10.1 10.1H260c-14.2 0-25.8 11.5-25.8 25.7s11.5 25.7 25.8 25.7h504.1c14.2 0 25.8-11.5 25.8-25.7s-11.5-25.7-25.8-25.7H548.4c-5.6 0-10.1-4.5-10.1-10.1V746.7c0-5.5 4.5-10.1 10.1-10.1z" fill="#FFC64B" p-id="5568"></path></svg>