<?xml version="1.0" standalone="no"?><!DOCTYPE svg PUBLIC "-//W3C//DTD SVG 1.1//EN" "http://www.w3.org/Graphics/SVG/1.1/DTD/svg11.dtd"><svg t="1690968521202" class="icon" viewBox="0 0 1024 1024" version="1.1" xmlns="http://www.w3.org/2000/svg" p-id="5424" xmlns:xlink="http://www.w3.org/1999/xlink" width="200" height="200"><path d="M831.488 420.864L719.872 289.792c-12.288-14.336-31.744-14.336-44.032 0-12.288 14.336-12.288 36.864 0 51.2l88.064 104.448L675.84 549.888c-12.288 14.336-12.288 36.864 0 51.2 6.144 7.168 14.336 10.24 21.504 10.24 8.192 0 15.36-3.072 21.504-10.24L829.44 471.04c6.144-7.168 9.216-16.384 9.216-25.6 2.048-7.168-1.024-17.408-7.168-24.576z m-225.28-168.96c-15.36-10.24-33.792-4.096-41.984 13.312L408.576 587.776c-8.192 18.432-3.072 39.936 11.264 50.176 5.12 3.072 9.216 5.12 15.36 5.12 10.24 0 21.504-7.168 26.624-18.432l155.648-321.536c8.192-18.432 3.072-39.936-11.264-51.2z m-260.096 37.888c-12.288-14.336-31.744-14.336-44.032 0L192.512 420.864c-12.288 14.336-12.288 36.864 0 51.2l110.592 130.048c6.144 7.168 14.336 10.24 21.504 10.24 8.192 0 15.36-3.072 21.504-10.24 12.288-14.336 12.288-36.864 0-51.2l-88.064-104.448 89.088-105.472c11.264-14.336 11.264-36.864-1.024-51.2z m494.592 485.376H644.096v132.096H808.96c18.432 0 32.768 14.336 32.768 32.768S826.368 972.8 807.936 972.8H216.064c-18.432 0-32.768-14.336-32.768-32.768s14.336-32.768 32.768-32.768h164.864V775.168H183.296C110.592 775.168 51.2 716.8 51.2 644.096v-460.8C51.2 110.592 110.592 51.2 183.296 51.2h658.432c71.68 0 131.072 59.392 131.072 132.096v460.8c0 72.704-59.392 131.072-132.096 131.072z" p-id="5425"></path></svg>